<svg width="329" height="164" viewBox="0 0 329 164" fill="none" xmlns="http://www.w3.org/2000/svg">
<g filter="url(#filter0_d_106_467)">
<g clip-path="url(#clip0_106_467)">
<rect x="2" y="1" width="325" height="160" rx="24" fill="#8A75FF"/>
<g clip-path="url(#clip1_106_467)">
<ellipse cx="193" cy="78.5" rx="19" ry="49.5" fill="url(#paint0_linear_106_467)"/>
<ellipse cx="135.5" cy="76.5" rx="18.5" ry="49.5" fill="url(#paint1_linear_106_467)"/>
<circle cx="164.5" cy="91.5" r="49.5" fill="url(#paint2_linear_106_467)"/>
<path d="M212.932 93.6206H207.897V98.6887H212.932V103.724H218V83.5506H212.932V93.6206Z" fill="#3B27AA"/>
<path d="M212.932 103.724H207.897V113.827H212.932V103.724Z" fill="#3B27AA"/>
<path d="M212.932 73.4475H207.897V83.5506H212.932V73.4475Z" fill="#3B27AA"/>
<path d="M207.897 113.827H202.862V118.862H207.897V113.827Z" fill="#3B27AA"/>
<path d="M207.897 88.5856H197.794V93.6206H207.897V88.5856Z" fill="#3B27AA"/>
<path d="M207.897 38.1031H202.862V73.4475H207.897V38.1031Z" fill="#3B27AA"/>
<path d="M202.862 118.862H197.794V123.93H202.862V118.862Z" fill="#3B27AA"/>
<path d="M197.794 38.1031H202.862V28H192.759V33.0681H197.794V38.1031Z" fill="#3B27AA"/>
<path d="M197.794 83.5506H177.621V88.5856H197.794V83.5506Z" fill="#3B27AA"/>
<path d="M197.794 123.93H182.656V128.965H197.794V123.93Z" fill="#3B27AA"/>
<path d="M197.794 58.3094V43.1713H192.759V48.2063H187.724V53.2413H182.656V58.3094H197.794Z" fill="#3B27AA"/>
<path d="M192.759 33.0681H187.724V38.1031H192.759V33.0681Z" fill="#3B27AA"/>
<path d="M187.724 73.4475H182.656V78.4825H187.724V73.4475Z" fill="#3B27AA"/>
<path d="M187.724 38.1031H182.656V43.1713H187.724V38.1031Z" fill="#3B27AA"/>
<path d="M182.656 43.1713H177.621V48.2063H182.656V43.1713Z" fill="#3B27AA"/>
<path d="M182.656 128.965H147.311V134H182.656V128.965Z" fill="#3B27AA"/>
<path d="M177.621 98.6887H172.552V103.724H177.621V98.6887Z" fill="#3B27AA"/>
<path d="M152.379 78.4825V83.5506H157.414V88.5856H162.483V93.6206H167.518V88.5856H172.553V83.5506H177.621V78.4825H152.379Z" fill="#3B27AA"/>
<path d="M172.553 103.724H162.483V108.759H172.553V103.724Z" fill="#3B27AA"/>
<path d="M177.621 48.2062H152.379V53.2412H177.621V48.2062Z" fill="#3B27AA"/>
<path d="M152.379 43.1713H147.311V48.2063H152.379V43.1713Z" fill="#3B27AA"/>
<path d="M147.311 123.93H132.173V128.965H147.311V123.93Z" fill="#3B27AA"/>
<path d="M152.379 83.5506H132.173V88.5856H152.379V83.5506Z" fill="#3B27AA"/>
<path d="M147.311 73.4475H142.276V78.4825H147.311V73.4475Z" fill="#3B27AA"/>
<path d="M147.311 38.1031H142.276V43.1713H147.311V38.1031Z" fill="#3B27AA"/>
<path d="M147.311 58.3094V53.2413H142.276V48.2063H137.241V43.1713H132.173V58.3094H147.311Z" fill="#3B27AA"/>
<path d="M142.276 33.0681H137.241V38.1031H142.276V33.0681Z" fill="#3B27AA"/>
<path d="M132.173 118.862H127.138V123.93H132.173V118.862Z" fill="#3B27AA"/>
<path d="M132.173 33.0681H137.241V28H127.138V38.1031H132.173V33.0681Z" fill="#3B27AA"/>
<path d="M127.138 113.827H122.103V118.862H127.138V113.827Z" fill="#3B27AA"/>
<path d="M132.173 88.5856H122.103V93.6206H132.173V88.5856Z" fill="#3B27AA"/>
<path d="M127.138 38.1031H122.103V73.4475H127.138V38.1031Z" fill="#3B27AA"/>
<path d="M122.103 103.724H117.035V113.827H122.103V103.724Z" fill="#3B27AA"/>
<path d="M122.103 98.6887V93.6206H117.035V83.5506H112V103.724H117.035V98.6887H122.103Z" fill="#3B27AA"/>
<path d="M122.103 73.4475H117.035V83.5506H122.103V73.4475Z" fill="#3B27AA"/>
</g>
<ellipse cx="262.003" cy="47.001" rx="22.5" ry="27" transform="rotate(-45.0144 262.003 47.001)" fill="url(#paint3_linear_106_467)"/>
<path d="M298.446 72.0859H295.359V78.2609H298.446V72.0859Z" fill="#3B27AA"/>
<path d="M295.359 78.2609H292.251V81.3687H295.359V78.2609Z" fill="#3B27AA"/>
<path d="M295.359 68.9781H289.163V72.086H295.359V68.9781Z" fill="#3B27AA"/>
<path d="M292.251 81.3688H286.076V84.4563H292.251V81.3688Z" fill="#3B27AA"/>
<path d="M289.163 65.8906H286.076V68.9781H289.163V65.8906Z" fill="#3B27AA"/>
<path d="M286.076 75.1735H282.968V81.3688H286.076V75.1735Z" fill="#3B27AA"/>
<path d="M282.968 62.7828H279.88V65.8906H286.076V47.3047H282.968V62.7828Z" fill="#3B27AA"/>
<path d="M282.968 72.0859H279.88V75.1734H282.968V72.0859Z" fill="#3B27AA"/>
<path d="M282.968 38.0219H279.88V47.3047H282.968V38.0219Z" fill="#3B27AA"/>
<path d="M276.793 65.8906V68.9781H261.315V72.0859H279.881V65.8906H276.793Z" fill="#3B27AA"/>
<path d="M279.88 34.9344H276.793V38.0219H279.88V34.9344Z" fill="#3B27AA"/>
<path d="M276.793 31.8469H273.685V34.9344H276.793V31.8469Z" fill="#3B27AA"/>
<path d="M273.685 28.7391H270.598V31.8469H273.685V28.7391Z" fill="#3B27AA"/>
<path d="M270.598 25.6516H267.49V28.7391H270.598V25.6516Z" fill="#3B27AA"/>
<path d="M267.49 56.6078H264.402V59.6953H267.49V56.6078Z" fill="#3B27AA"/>
<path d="M261.315 65.8906H252.012V68.9781H261.315V65.8906Z" fill="#3B27AA"/>
<path d="M261.315 56.6078H255.12V59.6953H261.315V56.6078Z" fill="#3B27AA"/>
<path d="M255.12 53.5H252.012V56.6078H255.12V53.5Z" fill="#3B27AA"/>
<path d="M252.012 62.7828H248.924V65.8907H252.012V62.7828Z" fill="#3B27AA"/>
<path d="M252.012 50.4125H248.924V53.5H252.012V50.4125Z" fill="#3B27AA"/>
<path d="M267.49 22.5438H245.837V25.6516H267.49V22.5438Z" fill="#3B27AA"/>
<path d="M248.924 59.6953H245.837V62.7828H248.924V59.6953Z" fill="#3B27AA"/>
<path d="M248.924 47.3047H245.837V50.4125H248.924V47.3047Z" fill="#3B27AA"/>
<path d="M245.837 56.6078H242.729V59.6953H245.837V56.6078Z" fill="#3B27AA"/>
<path d="M245.837 41.1297H242.729V47.3047H245.837V41.1297Z" fill="#3B27AA"/>
<path d="M245.837 25.6516H242.729V28.7391H245.837V25.6516Z" fill="#3B27AA"/>
<path d="M242.729 53.5H239.641V56.6078H242.729V53.5Z" fill="#3B27AA"/>
<path d="M242.729 28.7391H239.641V31.8469H242.729V28.7391Z" fill="#3B27AA"/>
<path d="M239.641 31.8469H236.554V53.5H239.641V31.8469Z" fill="#3B27AA"/>
<ellipse cx="66.1158" cy="48.6318" rx="20.7786" ry="27" transform="rotate(28.3839 66.1158 48.6318)" fill="url(#paint4_linear_106_467)"/>
<path d="M29.5539 74.0859H32.6414V80.2609H29.5539V74.0859Z" fill="#3B27AA"/>
<path d="M32.6413 80.2609H35.7491V83.3687H32.6413V80.2609Z" fill="#3B27AA"/>
<path d="M32.6414 70.9781H38.8367V74.086H32.6414V70.9781Z" fill="#3B27AA"/>
<path d="M35.7492 83.3688H41.9242V86.4563H35.7492V83.3688Z" fill="#3B27AA"/>
<path d="M38.8367 67.8906H41.9242V70.9781H38.8367V67.8906Z" fill="#3B27AA"/>
<path d="M41.9242 77.1735H45.032V83.3688H41.9242V77.1735Z" fill="#3B27AA"/>
<path d="M45.032 64.7828H48.1195V67.8906H41.9242V49.3047H45.032V64.7828Z" fill="#3B27AA"/>
<path d="M45.032 74.0859H48.1195V77.1734H45.032V74.0859Z" fill="#3B27AA"/>
<path d="M45.032 40.0219H48.1195V49.3047H45.032V40.0219Z" fill="#3B27AA"/>
<path d="M51.2069 67.8906V70.9781H66.6851V74.0859H48.1194V67.8906H51.2069Z" fill="#3B27AA"/>
<path d="M48.1195 36.9344H51.207V40.0219H48.1195V36.9344Z" fill="#3B27AA"/>
<path d="M51.207 33.8469H54.3148V36.9344H51.207V33.8469Z" fill="#3B27AA"/>
<path d="M54.3148 30.7391H57.4023V33.8469H54.3148V30.7391Z" fill="#3B27AA"/>
<path d="M57.4023 27.6516H60.5101V30.7391H57.4023V27.6516Z" fill="#3B27AA"/>
<path d="M60.5102 58.6078H63.5977V61.6953H60.5102V58.6078Z" fill="#3B27AA"/>
<path d="M66.6852 67.8906H75.9883V70.9781H66.6852V67.8906Z" fill="#3B27AA"/>
<path d="M66.6851 58.6078H72.8804V61.6953H66.6851V58.6078Z" fill="#3B27AA"/>
<path d="M72.8805 55.5H75.9883V58.6078H72.8805V55.5Z" fill="#3B27AA"/>
<path d="M75.9882 64.7828H79.0757V67.8907H75.9882V64.7828Z" fill="#3B27AA"/>
<path d="M75.9882 52.4125H79.0757V55.5H75.9882V52.4125Z" fill="#3B27AA"/>
<path d="M60.5101 24.5438H82.1632V27.6516H60.5101V24.5438Z" fill="#3B27AA"/>
<path d="M79.0757 61.6953H82.1632V64.7828H79.0757V61.6953Z" fill="#3B27AA"/>
<path d="M79.0757 49.3047H82.1632V52.4125H79.0757V49.3047Z" fill="#3B27AA"/>
<path d="M82.1632 58.6078H85.271V61.6953H82.1632V58.6078Z" fill="#3B27AA"/>
<path d="M82.1632 43.1297H85.271V49.3047H82.1632V43.1297Z" fill="#3B27AA"/>
<path d="M82.1632 27.6516H85.271V30.7391H82.1632V27.6516Z" fill="#3B27AA"/>
<path d="M85.271 55.5H88.3585V58.6078H85.271V55.5Z" fill="#3B27AA"/>
<path d="M85.271 30.7391H88.3585V33.8469H85.271V30.7391Z" fill="#3B27AA"/>
<path d="M88.3585 33.8469H91.446V55.5H88.3585V33.8469Z" fill="#3B27AA"/>
</g>
</g>
<defs>
<filter id="filter0_d_106_467" x="0" y="0" width="329" height="164" filterUnits="userSpaceOnUse" color-interpolation-filters="sRGB">
<feFlood flood-opacity="0" result="BackgroundImageFix"/>
<feColorMatrix in="SourceAlpha" type="matrix" values="0 0 0 0 0 0 0 0 0 0 0 0 0 0 0 0 0 0 127 0" result="hardAlpha"/>
<feOffset dy="1"/>
<feGaussianBlur stdDeviation="1"/>
<feComposite in2="hardAlpha" operator="out"/>
<feColorMatrix type="matrix" values="0 0 0 0 0.894118 0 0 0 0 0.898039 0 0 0 0 0.905882 0 0 0 0.24 0"/>
<feBlend mode="normal" in2="BackgroundImageFix" result="effect1_dropShadow_106_467"/>
<feBlend mode="normal" in="SourceGraphic" in2="effect1_dropShadow_106_467" result="shape"/>
</filter>
<linearGradient id="paint0_linear_106_467" x1="193" y1="29" x2="193" y2="128" gradientUnits="userSpaceOnUse">
<stop stop-color="#FFBF42"/>
<stop offset="1" stop-color="#674CFF"/>
</linearGradient>
<linearGradient id="paint1_linear_106_467" x1="135.5" y1="27" x2="135.5" y2="126" gradientUnits="userSpaceOnUse">
<stop stop-color="#FFBF42"/>
<stop offset="1" stop-color="#674CFF"/>
</linearGradient>
<linearGradient id="paint2_linear_106_467" x1="164.5" y1="42" x2="164.5" y2="141" gradientUnits="userSpaceOnUse">
<stop stop-color="#FFBF42"/>
<stop offset="1" stop-color="#674CFF"/>
</linearGradient>
<linearGradient id="paint3_linear_106_467" x1="262.003" y1="20.001" x2="262.003" y2="74.001" gradientUnits="userSpaceOnUse">
<stop stop-color="#FFBF42"/>
<stop offset="1" stop-color="#674CFF"/>
</linearGradient>
<linearGradient id="paint4_linear_106_467" x1="66.1158" y1="21.6318" x2="66.1158" y2="75.6318" gradientUnits="userSpaceOnUse">
<stop stop-color="#FFBF42"/>
<stop offset="1" stop-color="#674CFF"/>
</linearGradient>
<clipPath id="clip0_106_467">
<rect x="2" y="1" width="325" height="160" rx="24" fill="white"/>
</clipPath>
<clipPath id="clip1_106_467">
<rect width="106" height="106" fill="white" transform="translate(112 28)"/>
</clipPath>
</defs>
</svg>
